<?xml version="1.0" encoding="utf-8"?>
<!-- Generator: Adobe Illustrator 26.1.0, SVG Export Plug-In . SVG Version: 6.00 Build 0)  -->
<svg version="1.1" id="Layer_1" xmlns="http://www.w3.org/2000/svg" xmlns:xlink="http://www.w3.org/1999/xlink" x="0px" y="0px"
	 viewBox="0 0 240 234" style="enable-background:new 0 0 240 234;" xml:space="preserve">
<style type="text/css">
	.st0{fill:#1E3101;}
	.st1{fill:#99E83F;}
</style>
<g id="Layer_2_00000074402589873450084270000004190557603151423886_">
	<g id="Surfaces">
		<g id="Utility_Surface">
			<g id="Outline_no_shadow_copy_7">
				<path class="st0" d="M42.5,0h155C221,0,240,19,240,42.5v149c0,23.5-19,42.5-42.5,42.5h-155C19,234,0,215,0,191.5v-149
					C0,19,19,0,42.5,0z"/>
			</g>
		</g>
	</g>
	<g id="Outlined_Mnemonics_Logos">
		<g id="_3D_Object_Assets_Not_Pixel_Snapped_">
			<path class="st1" d="M193.3,80.6l-40.5-20.5c-1.3-0.6-2.7-0.6-4,0l-29,14.4l-29-14.4c-1.3-0.6-2.7-0.6-4,0L46.2,80.6
				c-1.5,0.8-2.5,2.3-2.5,4v48.6c0,1.7,1,3.2,2.5,4l71.5,35.8c1.3,0.6,2.7,0.6,4,0l71.5-35.8c1.5-0.8,2.5-2.3,2.5-4V84.6
				C195.8,82.9,194.8,81.3,193.3,80.6z M52.7,91.8l62.6,31.4v38.5l-62.6-31.3V91.8z M186.8,130.4l-62.6,31.3v-38.5l62.6-31.4
				L186.8,130.4z"/>
		</g>
	</g>
</g>
</svg>
